name rise37.2698peak67.6939fall79.5734.mot
datacolumns 19
datarows 33
range 7.29997400000000 7.35330900000000
endheader
time	ground_force1_vx	ground_force1_vy	ground_force1_vz	ground_force1_px	ground_force1_py	ground_force1_pz	ground_force2_vx	ground_force2_vy	ground_force2_vz	ground_force2_px	ground_force2_py	ground_force2_pz	ground_torque1_x	ground_torque1_y	ground_torque1_z	ground_torque2_x	ground_torque2_y	ground_torque2_z	
7.29997400000000	7.82917300000000	700.87835299999995	39.95368900000000	0.20215100000000	0.00000000000000	0.10137900000000	0.00000000000000	0.00000000000000	0.00000000000000	0.00000000000000	0.00000000000000	0.00000000000000	0.00000000000000	14.09698200000000	0.00000000000000	0.00000000000000	0.00000000000000	0.00000000000000	
7.30163800000000	7.34099400000000	701.72919300000001	40.01912700000000	0.20123800000000	0.00000000000000	0.10134000000000	0.00000000000000	0.00000000000000	0.00000000000000	0.00000000000000	0.00000000000000	0.00000000000000	0.00000000000000	14.17678200000000	0.00000000000000	0.00000000000000	0.00000000000000	0.00000000000000	
7.30330800000000	6.83748600000000	702.62321599999996	40.09249400000000	0.20029700000000	0.00000000000000	0.10130300000000	0.00000000000000	0.00000000000000	0.00000000000000	0.00000000000000	0.00000000000000	0.00000000000000	0.00000000000000	14.26122200000000	0.00000000000000	0.00000000000000	0.00000000000000	0.00000000000000	
7.30497300000000	6.31849500000000	703.56024100000002	40.17362900000000	0.19932700000000	0.00000000000000	0.10126800000000	0.00000000000000	0.00000000000000	0.00000000000000	0.00000000000000	0.00000000000000	0.00000000000000	0.00000000000000	14.35021600000000	0.00000000000000	0.00000000000000	0.00000000000000	0.00000000000000	
7.30664200000000	5.78393300000000	704.54009699999995	40.26237300000000	0.19832900000000	0.00000000000000	0.10123700000000	0.00000000000000	0.00000000000000	0.00000000000000	0.00000000000000	0.00000000000000	0.00000000000000	0.00000000000000	14.44367500000000	0.00000000000000	0.00000000000000	0.00000000000000	0.00000000000000	
7.30830600000000	5.23377400000000	705.56262100000004	40.35856600000000	0.19730500000000	0.00000000000000	0.10120800000000	0.00000000000000	0.00000000000000	0.00000000000000	0.00000000000000	0.00000000000000	0.00000000000000	0.00000000000000	14.54150600000000	0.00000000000000	0.00000000000000	0.00000000000000	0.00000000000000	
7.30997000000000	4.66805400000000	706.62765000000002	40.46204500000000	0.19625400000000	0.00000000000000	0.10118200000000	0.00000000000000	0.00000000000000	0.00000000000000	0.00000000000000	0.00000000000000	0.00000000000000	0.00000000000000	14.64361300000000	0.00000000000000	0.00000000000000	0.00000000000000	0.00000000000000	
7.31164500000000	4.08687300000000	707.73501999999996	40.57264900000000	0.19517800000000	0.00000000000000	0.10115800000000	0.00000000000000	0.00000000000000	0.00000000000000	0.00000000000000	0.00000000000000	0.00000000000000	0.00000000000000	14.74989600000000	0.00000000000000	0.00000000000000	0.00000000000000	0.00000000000000	
7.31331000000000	3.49039500000000	708.88455599999998	40.69021600000000	0.19407900000000	0.00000000000000	0.10113700000000	0.00000000000000	0.00000000000000	0.00000000000000	0.00000000000000	0.00000000000000	0.00000000000000	0.00000000000000	14.86025100000000	0.00000000000000	0.00000000000000	0.00000000000000	0.00000000000000	
7.31497400000000	2.87884200000000	710.07606999999996	40.81458100000000	0.19295800000000	0.00000000000000	0.10111800000000	0.00000000000000	0.00000000000000	0.00000000000000	0.00000000000000	0.00000000000000	0.00000000000000	0.00000000000000	14.97457200000000	0.00000000000000	0.00000000000000	0.00000000000000	0.00000000000000	
7.31663700000000	2.25249700000000	711.30935499999998	40.94558100000000	0.19181700000000	0.00000000000000	0.10110200000000	0.00000000000000	0.00000000000000	0.00000000000000	0.00000000000000	0.00000000000000	0.00000000000000	0.00000000000000	15.09274700000000	0.00000000000000	0.00000000000000	0.00000000000000	0.00000000000000	
7.31830800000000	1.61170400000000	712.58417799999995	41.08305200000000	0.19065700000000	0.00000000000000	0.10108700000000	0.00000000000000	0.00000000000000	0.00000000000000	0.00000000000000	0.00000000000000	0.00000000000000	0.00000000000000	15.21465900000000	0.00000000000000	0.00000000000000	0.00000000000000	0.00000000000000	
7.31997400000000	0.95686100000000	713.90027399999997	41.22682800000000	0.18948000000000	0.00000000000000	0.10107500000000	0.00000000000000	0.00000000000000	0.00000000000000	0.00000000000000	0.00000000000000	0.00000000000000	0.00000000000000	15.34018800000000	0.00000000000000	0.00000000000000	0.00000000000000	0.00000000000000	
7.32164000000000	0.28842200000000	715.25734299999999	41.37674300000000	0.18828700000000	0.00000000000000	0.10106400000000	0.00000000000000	0.00000000000000	0.00000000000000	0.00000000000000	0.00000000000000	0.00000000000000	0.00000000000000	15.46921000000000	0.00000000000000	0.00000000000000	0.00000000000000	0.00000000000000	
7.32330600000000	-0.39310500000000	716.65504099999998	41.53263300000000	0.18708200000000	0.00000000000000	0.10105500000000	0.00000000000000	0.00000000000000	0.00000000000000	0.00000000000000	0.00000000000000	0.00000000000000	0.00000000000000	15.60159500000000	0.00000000000000	0.00000000000000	0.00000000000000	0.00000000000000	
7.32497200000000	-1.08716300000000	718.09297800000002	41.69432900000000	0.18586600000000	0.00000000000000	0.10104800000000	0.00000000000000	0.00000000000000	0.00000000000000	0.00000000000000	0.00000000000000	0.00000000000000	0.00000000000000	15.73720600000000	0.00000000000000	0.00000000000000	0.00000000000000	0.00000000000000	
7.32664100000000	-1.79314500000000	719.57070899999997	41.86166600000000	0.18464000000000	0.00000000000000	0.10104200000000	0.00000000000000	0.00000000000000	0.00000000000000	0.00000000000000	0.00000000000000	0.00000000000000	0.00000000000000	15.87590500000000	0.00000000000000	0.00000000000000	0.00000000000000	0.00000000000000	
7.32830700000000	-2.51040000000000	721.08773099999996	42.03447600000000	0.18340800000000	0.00000000000000	0.10103800000000	0.00000000000000	0.00000000000000	0.00000000000000	0.00000000000000	0.00000000000000	0.00000000000000	0.00000000000000	16.01754700000000	0.00000000000000	0.00000000000000	0.00000000000000	0.00000000000000	
7.32997100000000	-3.23823400000000	722.64347599999996	42.21259100000000	0.18217100000000	0.00000000000000	0.10103500000000	0.00000000000000	0.00000000000000	0.00000000000000	0.00000000000000	0.00000000000000	0.00000000000000	0.00000000000000	16.16198100000000	0.00000000000000	0.00000000000000	0.00000000000000	0.00000000000000	
7.33164300000000	-3.97591200000000	724.23730999999998	42.39584300000000	0.18093100000000	0.00000000000000	0.10103300000000	0.00000000000000	0.00000000000000	0.00000000000000	0.00000000000000	0.00000000000000	0.00000000000000	0.00000000000000	16.30905200000000	0.00000000000000	0.00000000000000	0.00000000000000	0.00000000000000	
7.33331000000000	-4.72266400000000	725.86852199999998	42.58406400000000	0.17969000000000	0.00000000000000	0.10103300000000	0.00000000000000	0.00000000000000	0.00000000000000	0.00000000000000	0.00000000000000	0.00000000000000	0.00000000000000	16.45859800000000	0.00000000000000	0.00000000000000	0.00000000000000	0.00000000000000	
7.33497200000000	-5.47768500000000	727.53632700000003	42.77708700000000	0.17845000000000	0.00000000000000	0.10103300000000	0.00000000000000	0.00000000000000	0.00000000000000	0.00000000000000	0.00000000000000	0.00000000000000	0.00000000000000	16.61045300000000	0.00000000000000	0.00000000000000	0.00000000000000	0.00000000000000	
7.33664100000000	-6.24014100000000	729.23985300000004	42.97474100000000	0.17721400000000	0.00000000000000	0.10103400000000	0.00000000000000	0.00000000000000	0.00000000000000	0.00000000000000	0.00000000000000	0.00000000000000	0.00000000000000	16.76444500000000	0.00000000000000	0.00000000000000	0.00000000000000	0.00000000000000	
7.33830500000000	-7.00916800000000	730.97814800000003	43.17686000000000	0.17598300000000	0.00000000000000	0.10103600000000	0.00000000000000	0.00000000000000	0.00000000000000	0.00000000000000	0.00000000000000	0.00000000000000	0.00000000000000	16.92039700000000	0.00000000000000	0.00000000000000	0.00000000000000	0.00000000000000	
7.33997700000000	-7.78388000000000	732.75016600000004	43.38327400000000	0.17476000000000	0.00000000000000	0.10103800000000	0.00000000000000	0.00000000000000	0.00000000000000	0.00000000000000	0.00000000000000	0.00000000000000	0.00000000000000	17.07812600000000	0.00000000000000	0.00000000000000	0.00000000000000	0.00000000000000	
7.34164200000000	-8.56337200000000	734.55477099999996	43.59381600000000	0.17354500000000	0.00000000000000	0.10104200000000	0.00000000000000	0.00000000000000	0.00000000000000	0.00000000000000	0.00000000000000	0.00000000000000	0.00000000000000	17.23744300000000	0.00000000000000	0.00000000000000	0.00000000000000	0.00000000000000	
7.34330600000000	-9.34671800000000	736.39073199999996	43.80831800000000	0.17234000000000	0.00000000000000	0.10104500000000	0.00000000000000	0.00000000000000	0.00000000000000	0.00000000000000	0.00000000000000	0.00000000000000	0.00000000000000	17.39815700000000	0.00000000000000	0.00000000000000	0.00000000000000	0.00000000000000	
7.34497200000000	-10.13298000000000	738.25672099999997	44.02661200000000	0.17114800000000	0.00000000000000	0.10104900000000	0.00000000000000	0.00000000000000	0.00000000000000	0.00000000000000	0.00000000000000	0.00000000000000	0.00000000000000	17.56006700000000	0.00000000000000	0.00000000000000	0.00000000000000	0.00000000000000	
7.34664300000000	-10.92120900000000	740.15130799999997	44.24853200000000	0.16996900000000	0.00000000000000	0.10105300000000	0.00000000000000	0.00000000000000	0.00000000000000	0.00000000000000	0.00000000000000	0.00000000000000	0.00000000000000	17.72297000000000	0.00000000000000	0.00000000000000	0.00000000000000	0.00000000000000	
7.34830500000000	-11.71045000000000	742.07296699999995	44.47391100000000	0.16880500000000	0.00000000000000	0.10105800000000	0.00000000000000	0.00000000000000	0.00000000000000	0.00000000000000	0.00000000000000	0.00000000000000	0.00000000000000	17.88665800000000	0.00000000000000	0.00000000000000	0.00000000000000	0.00000000000000	
7.34997200000000	-12.49974100000000	744.02006600000004	44.70258200000000	0.16765700000000	0.00000000000000	0.10106200000000	0.00000000000000	0.00000000000000	0.00000000000000	0.00000000000000	0.00000000000000	0.00000000000000	0.00000000000000	18.05091700000000	0.00000000000000	0.00000000000000	0.00000000000000	0.00000000000000	
7.35163900000000	-13.28812000000000	745.99087499999996	44.93438000000000	0.16652600000000	0.00000000000000	0.10106700000000	0.00000000000000	0.00000000000000	0.00000000000000	0.00000000000000	0.00000000000000	0.00000000000000	0.00000000000000	18.21552900000000	0.00000000000000	0.00000000000000	0.00000000000000	0.00000000000000	
7.35330900000000	-14.07462800000000	747.98355900000001	45.16914000000000	0.16541300000000	0.00000000000000	0.10107100000000	0.00000000000000	0.00000000000000	0.00000000000000	0.00000000000000	0.00000000000000	0.00000000000000	0.00000000000000	18.38027300000000	0.00000000000000	0.00000000000000	0.00000000000000	0.00000000000000	
